<svg width="20" height="20" viewBox="0 0 20 20" fill="none" xmlns="http://www.w3.org/2000/svg">
<g clip-path="url(#clip0)">
<path d="M20 2.29172C20 1.02753 18.9725 0 17.7083 0H2.29172C1.02753 0 0 1.02753 0 2.29172V17.7083C0 18.9725 1.02753 20 2.29172 20H17.7083C18.9725 20 20 18.9725 20 17.7083V2.29172Z" fill="#1ACE77"/>
<path d="M16.1519 5.63602C16.583 6.06718 16.583 6.7641 16.1519 7.19546L8.98295 14.3642C8.76787 14.5793 8.48555 14.6875 8.20323 14.6875C7.9209 14.6875 7.63858 14.5793 7.42351 14.3642L3.83914 10.7798C3.40779 10.3487 3.40779 9.65154 3.83914 9.22038C4.2703 8.78902 4.96722 8.78902 5.39858 9.22038L8.20323 12.025L14.5924 5.63602C15.0236 5.20466 15.7205 5.20466 16.1519 5.63602Z" fill="white"/>
</g>
<defs>
<clipPath id="clip0">
<rect width="20" height="20" fill="white"/>
</clipPath>
</defs>
</svg>
