<svg width="16" height="16" viewBox="0 0 16 16" fill="none" xmlns="http://www.w3.org/2000/svg">
<path d="M2.67241 10.5172C3.04378 10.5172 3.34483 10.2161 3.34483 9.84478C3.34483 9.47341 3.04378 9.17236 2.67241 9.17236C2.30105 9.17236 2 9.47341 2 9.84478C2 10.2161 2.30105 10.5172 2.67241 10.5172Z" fill="#1BD2ED" stroke="#1BD2ED" stroke-width="0.4"/>
<path d="M6.70684 14.5519C7.0782 14.5519 7.37925 14.2508 7.37925 13.8794C7.37925 13.5081 7.0782 13.207 6.70684 13.207C6.33547 13.207 6.03442 13.5081 6.03442 13.8794C6.03442 14.2508 6.33547 14.5519 6.70684 14.5519Z" fill="#1BD2ED" stroke="#1BD2ED" stroke-width="0.4"/>
<path d="M4.1574 13.067C4.52876 13.067 4.82981 12.7659 4.82981 12.3946C4.82981 12.0232 4.52876 11.7222 4.1574 11.7222C3.78604 11.7222 3.48499 12.0232 3.48499 12.3946C3.48499 12.7659 3.78604 13.067 4.1574 13.067Z" fill="#1BD2ED" stroke="#1BD2ED" stroke-width="0.4"/>
<path d="M2.67241 7.3795C3.04378 7.3795 3.34483 7.07845 3.34483 6.70708C3.34483 6.33572 3.04378 6.03467 2.67241 6.03467C2.30105 6.03467 2 6.33572 2 6.70708C2 7.07845 2.30105 7.3795 2.67241 7.3795Z" fill="#1BD2ED" stroke="#1BD2ED" stroke-width="0.4"/>
<path d="M6.70684 3.34483C7.0782 3.34483 7.37925 3.04378 7.37925 2.67241C7.37925 2.30105 7.0782 2 6.70684 2C6.33547 2 6.03442 2.30105 6.03442 2.67241C6.03442 3.04378 6.33547 3.34483 6.70684 3.34483Z" fill="#1BD2ED" stroke="#1BD2ED" stroke-width="0.4"/>
<path d="M4.1574 4.82969C4.52876 4.82969 4.82981 4.52864 4.82981 4.15728C4.82981 3.78591 4.52876 3.48486 4.1574 3.48486C3.78604 3.48486 3.48499 3.78591 3.48499 4.15728C3.48499 4.52864 3.78604 4.82969 4.1574 4.82969Z" fill="#1BD2ED" stroke="#1BD2ED" stroke-width="0.4"/>
<path d="M14.179 13.658L12.4055 13.4619C12.8706 13.1117 13.2909 12.6998 13.6523 12.2348C15.451 9.90373 15.4482 6.65093 13.6439 4.3255C12.7838 3.21881 11.5986 2.41472 10.2538 2.02528C9.9008 1.92722 9.53377 2.13175 9.43011 2.48196C9.32365 2.83778 9.52817 3.21321 9.88399 3.31687C12.1058 3.95567 13.6551 5.99252 13.6551 8.27593C13.6579 9.41062 13.2825 10.5145 12.5877 11.4139C12.1758 11.9462 11.6631 12.3917 11.0887 12.7251L11.8396 10.027C11.8396 10.0242 11.8396 10.0242 11.8424 10.0214C11.9405 9.66278 11.7275 9.29295 11.3717 9.19489C11.0131 9.09683 10.6433 9.30976 10.5452 9.66558L9.42451 13.7001C9.4189 13.7169 9.4161 13.7309 9.4133 13.7477C9.4133 13.7505 9.4133 13.7505 9.4133 13.7533C9.4105 13.7673 9.4077 13.7841 9.40489 13.8009C9.40489 13.8037 9.40489 13.8037 9.40489 13.8065V13.8093C9.40489 13.8177 9.40209 13.8289 9.40209 13.8373C9.40209 13.8458 9.40209 13.8542 9.40209 13.8626C9.40209 13.8682 9.40209 13.8738 9.40209 13.8822C9.40209 14.1119 9.51696 14.3136 9.69067 14.4341C9.69908 14.4397 9.70748 14.4453 9.71589 14.4509C9.72429 14.4565 9.7327 14.4621 9.7439 14.4677C9.75231 14.4733 9.76352 14.4789 9.77192 14.4817C9.84477 14.5182 9.92321 14.5406 10.0045 14.549L14.0305 14.9973C14.0558 15.0001 14.081 15.0001 14.1062 15.0001C14.448 15.0001 14.7366 14.7423 14.773 14.4005C14.8122 14.0335 14.5461 13.7001 14.179 13.658Z" fill="#1BD2ED"/>
</svg>
