<svg width="24" height="24" viewBox="0 0 24 24" fill="none" xmlns="http://www.w3.org/2000/svg">
<path d="M17.8003 10.1992H6.60003C5.71636 10.1992 5 10.9156 5 11.7993V17.3994C5 18.283 5.71636 18.9994 6.60003 18.9994H17.8003C18.684 18.9994 19.4003 18.283 19.4003 17.3994V11.7993C19.4003 10.9156 18.684 10.1992 17.8003 10.1992Z" stroke="#183C60" stroke-width="1.6" stroke-linecap="round" stroke-linejoin="round"/>
<path d="M8.20007 10.2002V7.00009C8.20007 5.9392 8.62151 4.92176 9.37167 4.1716C10.1218 3.42144 11.1393 3 12.2002 3C13.261 3 14.2785 3.42144 15.0286 4.1716C15.7788 4.92176 16.2002 5.9392 16.2002 7.00009V10.2002" stroke="#183C60" stroke-width="1.6" stroke-linecap="round" stroke-linejoin="round"/>
</svg>
