<svg width="24" height="24" viewBox="0 0 24 24" fill="none" xmlns="http://www.w3.org/2000/svg">
<path d="M12 0C5.38125 0 0 5.38125 0 12C0 18.6187 5.38125 24 12 24C18.6187 24 24 18.6187 24 12C24 5.38125 18.6187 0 12 0Z" fill="#1ACE77"/>
<path d="M19.4251 8.84531L11.3626 16.9078C11.1189 17.1516 10.8048 17.2734 10.4861 17.2734C10.1673 17.2734 9.85327 17.1516 9.60952 16.9078L5.57827 12.8766C5.09077 12.3938 5.09077 11.6063 5.57827 11.1234C6.06108 10.6359 6.84858 10.6359 7.3314 11.1234L10.4861 14.2781L17.672 7.09219C18.1548 6.60469 18.9423 6.60469 19.4251 7.09219C19.908 7.575 19.908 8.35781 19.4251 8.84531Z" fill="white"/>
</svg>
